<?xml version="1.0" encoding="UTF-8"?>
<svg width="700pt" height="700pt" version="1.1" viewBox="0 0 700 700" xmlns="http://www.w3.org/2000/svg" xmlns:xlink="http://www.w3.org/1999/xlink">
 <defs>
  <symbol id="o" overflow="visible">
   <path d="m29.312-1.75c-1.5117 0.78125-3.0898 1.3711-4.7344 1.7656-1.6367 0.40625-3.3398 0.60938-5.1094 0.60938-5.3125 0-9.5273-1.4844-12.641-4.4531-3.1055-2.9688-4.6562-7-4.6562-12.094s1.5508-9.125 4.6562-12.094c3.1133-2.9688 7.3281-4.4531 12.641-4.4531 1.7695 0 3.4727 0.19922 5.1094 0.59375 1.6445 0.39844 3.2227 0.99219 4.7344 1.7812v6.5938c-1.5312-1.0391-3.0391-1.8008-4.5156-2.2812-1.4805-0.48828-3.0391-0.73438-4.6719-0.73438-2.9375 0-5.2461 0.94531-6.9219 2.8281-1.6797 1.875-2.5156 4.4648-2.5156 7.7656 0 3.293 0.83594 5.8828 2.5156 7.7656 1.6758 1.875 3.9844 2.8125 6.9219 2.8125 1.6328 0 3.1914-0.23828 4.6719-0.71875 1.4766-0.48828 2.9844-1.2539 4.5156-2.2969z"/>
  </symbol>
  <symbol id="i" overflow="visible">
   <path d="m21.453-17.406c-0.67969-0.3125-1.3516-0.53906-2.0156-0.6875-0.65625-0.15625-1.3203-0.23438-1.9844-0.23438-1.9688 0-3.4844 0.63281-4.5469 1.8906-1.0547 1.2617-1.5781 3.0703-1.5781 5.4219v11.016h-7.6562v-23.922h7.6562v3.9219c0.97656-1.5625 2.1016-2.7031 3.375-3.4219 1.2812-0.71875 2.8125-1.0781 4.5938-1.0781 0.25 0 0.52344 0.011719 0.82812 0.03125 0.30078 0.023438 0.73438 0.070312 1.2969 0.14062z"/>
  </symbol>
  <symbol id="d" overflow="visible">
   <path d="m27.562-12.031v2.1875h-17.891c0.1875 1.793 0.83203 3.1367 1.9375 4.0312 1.1133 0.89844 2.6719 1.3438 4.6719 1.3438 1.6016 0 3.25-0.23438 4.9375-0.70312 1.6875-0.47656 3.4219-1.2031 5.2031-2.1719v5.8906c-1.8047 0.6875-3.6094 1.2031-5.4219 1.5469-1.8125 0.35156-3.6211 0.53125-5.4219 0.53125-4.3359 0-7.7031-1.0977-10.109-3.2969-2.3984-2.207-3.5938-5.2969-3.5938-9.2656 0-3.9062 1.1758-6.9727 3.5312-9.2031 2.3633-2.2383 5.6094-3.3594 9.7344-3.3594 3.7578 0 6.7695 1.1367 9.0312 3.4062 2.2578 2.2617 3.3906 5.2812 3.3906 9.0625zm-7.8594-2.5312c0-1.457-0.42969-2.6289-1.2812-3.5156-0.84375-0.89453-1.9492-1.3438-3.3125-1.3438-1.4922 0-2.6992 0.41797-3.625 1.25-0.91797 0.83594-1.4922 2.0391-1.7188 3.6094z"/>
  </symbol>
  <symbol id="a" overflow="visible">
   <path d="m14.391-10.766c-1.5938 0-2.793 0.27344-3.5938 0.8125-0.80469 0.54297-1.2031 1.3398-1.2031 2.3906 0 0.96875 0.32031 1.7305 0.96875 2.2812 0.64453 0.54297 1.5469 0.8125 2.7031 0.8125 1.4375 0 2.6445-0.51562 3.625-1.5469 0.98828-1.0312 1.4844-2.3203 1.4844-3.875v-0.875zm11.688-2.8906v13.656h-7.7031v-3.5469c-1.0312 1.4492-2.1875 2.5078-3.4688 3.1719s-2.8398 1-4.6719 1c-2.4805 0-4.4961-0.72266-6.0469-2.1719-1.543-1.4453-2.3125-3.3203-2.3125-5.625 0-2.8125 0.96094-4.8672 2.8906-6.1719 1.9375-1.3125 4.9688-1.9688 9.0938-1.9688h4.5156v-0.60938c0-1.207-0.48047-2.0938-1.4375-2.6562-0.94922-0.5625-2.4375-0.84375-4.4688-0.84375-1.6367 0-3.1562 0.16797-4.5625 0.5-1.4062 0.32422-2.7188 0.8125-3.9375 1.4688v-5.8281c1.6445-0.40625 3.2891-0.70703 4.9375-0.90625 1.6562-0.20703 3.3047-0.3125 4.9531-0.3125 4.3203 0 7.4375 0.85547 9.3438 2.5625 1.9141 1.6992 2.875 4.4609 2.875 8.2812z"/>
  </symbol>
  <symbol id="c" overflow="visible">
   <path d="m12.031-30.719v6.7969h7.875v5.4688h-7.875v10.141c0 1.1172 0.21875 1.8711 0.65625 2.2656 0.4375 0.38672 1.3125 0.57812 2.625 0.57812h3.9375v5.4688h-6.5625c-3.0234 0-5.1641-0.62891-6.4219-1.8906-1.2617-1.2578-1.8906-3.3984-1.8906-6.4219v-10.141h-3.7969v-5.4688h3.7969v-6.7969z"/>
  </symbol>
  <symbol id="h" overflow="visible">
   <path d="m19.953-20.422v-12.812h7.6875v33.234h-7.6875v-3.4531c-1.0547 1.4062-2.2148 2.4375-3.4844 3.0938-1.2734 0.65625-2.7422 0.98438-4.4062 0.98438-2.9492 0-5.3711-1.1719-7.2656-3.5156-1.8867-2.3438-2.8281-5.3594-2.8281-9.0469s0.94141-6.7031 2.8281-9.0469c1.8945-2.3438 4.3164-3.5156 7.2656-3.5156 1.6562 0 3.1172 0.33594 4.3906 1 1.2812 0.65625 2.4453 1.6836 3.5 3.0781zm-5.0469 15.484c1.6445 0 2.8945-0.59766 3.75-1.7969 0.86328-1.1953 1.2969-2.9297 1.2969-5.2031 0-2.2812-0.43359-4.0195-1.2969-5.2188-0.85547-1.1953-2.1055-1.7969-3.75-1.7969-1.625 0-2.8711 0.60156-3.7344 1.7969-0.85547 1.1992-1.2812 2.9375-1.2812 5.2188 0 2.2734 0.42578 4.0078 1.2812 5.2031 0.86328 1.1992 2.1094 1.7969 3.7344 1.7969z"/>
  </symbol>
  <symbol id="g" overflow="visible">
   <path d="m16.406-4.9375c1.6328 0 2.8828-0.59766 3.75-1.7969 0.86328-1.1953 1.2969-2.9297 1.2969-5.2031 0-2.2812-0.43359-4.0195-1.2969-5.2188-0.86719-1.1953-2.1172-1.7969-3.75-1.7969-1.6367 0-2.8906 0.60547-3.7656 1.8125-0.875 1.1992-1.3125 2.9336-1.3125 5.2031 0 2.2617 0.4375 3.9961 1.3125 5.2031 0.875 1.1992 2.1289 1.7969 3.7656 1.7969zm-5.0781-15.484c1.0508-1.3945 2.2188-2.4219 3.5-3.0781 1.2812-0.66406 2.7539-1 4.4219-1 2.9453 0 5.3672 1.1719 7.2656 3.5156 1.8945 2.3438 2.8438 5.3594 2.8438 9.0469s-0.94922 6.7031-2.8438 9.0469c-1.8984 2.3438-4.3203 3.5156-7.2656 3.5156-1.668 0-3.1406-0.33594-4.4219-1s-2.4492-1.6914-3.5-3.0781v3.4531h-7.6562v-33.234h7.6562z"/>
  </symbol>
  <symbol id="b" overflow="visible">
   <path d="m0.53125-23.922h7.6562l6.4219 16.234 5.4688-16.234h7.6562l-10.062 26.188c-1.0117 2.6641-2.1953 4.5234-3.5469 5.5781-1.3438 1.0625-3.1211 1.5938-5.3281 1.5938h-4.4219v-5.0156h2.3906c1.3008 0 2.2422-0.21094 2.8281-0.625 0.59375-0.40625 1.0547-1.1484 1.3906-2.2188l0.20312-0.65625z"/>
  </symbol>
  <symbol id="f" overflow="visible">
   <path d="m26.219-30.891v6.75c-1.7617-0.78125-3.4766-1.3672-5.1406-1.7656-1.668-0.40625-3.2422-0.60938-4.7188-0.60938-1.9609 0-3.4141 0.27344-4.3594 0.8125-0.9375 0.54297-1.4062 1.3867-1.4062 2.5312 0 0.85547 0.31641 1.5234 0.95312 2 0.63281 0.46875 1.7852 0.875 3.4531 1.2188l3.5 0.70312c3.5391 0.71875 6.0625 1.8047 7.5625 3.25 1.5 1.4492 2.25 3.5117 2.25 6.1875 0 3.5234-1.0469 6.1406-3.1406 7.8594-2.0859 1.7188-5.2734 2.5781-9.5625 2.5781-2.0234 0-4.0547-0.19531-6.0938-0.57812-2.0312-0.38281-4.0625-0.95703-6.0938-1.7188v-6.9375c2.0312 1.0859 3.9922 1.9023 5.8906 2.4531 1.9062 0.54297 3.7422 0.8125 5.5156 0.8125 1.7891 0 3.1602-0.29688 4.1094-0.89062 0.95703-0.60156 1.4375-1.457 1.4375-2.5625 0-1-0.32422-1.7695-0.96875-2.3125-0.64844-0.53906-1.9375-1.0234-3.875-1.4531l-3.1875-0.70312c-3.1875-0.6875-5.5234-1.7734-7-3.2656-1.4688-1.5-2.2031-3.5156-2.2031-6.0469 0-3.1758 1.0234-5.6172 3.0781-7.3281 2.0508-1.707 5-2.5625 8.8438-2.5625 1.75 0 3.5508 0.13281 5.4062 0.39062 1.8516 0.26172 3.7695 0.65625 5.75 1.1875z"/>
  </symbol>
  <symbol id="e" overflow="visible">
   <path d="m3.4219-9.3125v-14.609h7.6875v2.3906c0 1.293-0.011719 2.918-0.03125 4.875-0.011719 1.9609-0.015625 3.2656-0.015625 3.9219 0 1.9297 0.046875 3.3125 0.14062 4.1562 0.10156 0.84375 0.28125 1.4609 0.53125 1.8438 0.3125 0.5 0.71875 0.88672 1.2188 1.1562 0.50781 0.27344 1.0938 0.40625 1.75 0.40625 1.5938 0 2.8438-0.60938 3.75-1.8281 0.91406-1.2266 1.375-2.9297 1.375-5.1094v-11.812h7.6406v23.922h-7.6406v-3.4531c-1.1562 1.3867-2.3828 2.4141-3.6719 3.0781-1.2812 0.66406-2.6992 1-4.25 1-2.7734 0-4.8828-0.84766-6.3281-2.5469-1.4375-1.6953-2.1562-4.1602-2.1562-7.3906z"/>
  </symbol>
  <symbol id="n" overflow="visible">
   <path d="m11.328-3.4531v12.547h-7.6562v-33.016h7.6562v3.5c1.0508-1.3945 2.2188-2.4219 3.5-3.0781 1.2812-0.66406 2.7539-1 4.4219-1 2.9453 0 5.3672 1.1719 7.2656 3.5156 1.8945 2.3438 2.8438 5.3594 2.8438 9.0469s-0.94922 6.7031-2.8438 9.0469c-1.8984 2.3438-4.3203 3.5156-7.2656 3.5156-1.668 0-3.1406-0.33594-4.4219-1s-2.4492-1.6914-3.5-3.0781zm5.0781-15.5c-1.6367 0-2.8906 0.60547-3.7656 1.8125-0.875 1.1992-1.3125 2.9336-1.3125 5.2031 0 2.2617 0.4375 3.9961 1.3125 5.2031 0.875 1.1992 2.1289 1.7969 3.7656 1.7969 1.6328 0 2.8828-0.59766 3.75-1.7969 0.86328-1.1953 1.2969-2.9297 1.2969-5.2031 0-2.2812-0.43359-4.0195-1.2969-5.2188-0.86719-1.1953-2.1172-1.7969-3.75-1.7969z"/>
  </symbol>
  <symbol id="m" overflow="visible">
   <path d="m27.734-14.562v14.562h-7.7031v-11.156c0-2.0625-0.046875-3.4844-0.14062-4.2656-0.085937-0.78125-0.24219-1.3594-0.46875-1.7344-0.30469-0.5-0.71094-0.88281-1.2188-1.1562-0.51172-0.28125-1.0938-0.42188-1.75-0.42188-1.5938 0-2.8516 0.61719-3.7656 1.8438-0.90625 1.2305-1.3594 2.9375-1.3594 5.125v11.766h-7.6562v-23.922h7.6562v3.5c1.1445-1.3945 2.3633-2.4219 3.6562-3.0781 1.3008-0.66406 2.7383-1 4.3125-1 2.7578 0 4.8516 0.85156 6.2812 2.5469 1.4375 1.6875 2.1562 4.1523 2.1562 7.3906z"/>
  </symbol>
  <symbol id="l" overflow="visible">
   <path d="m4.0156-31.891h13.656c4.0508 0 7.1602 0.90234 9.3281 2.7031 2.1758 1.8047 3.2656 4.3711 3.2656 7.7031 0 3.3438-1.0898 5.918-3.2656 7.7188-2.168 1.8047-5.2773 2.7031-9.3281 2.7031h-5.4375v11.062h-8.2188zm8.2188 5.9531v8.9062h4.5625c1.5938 0 2.8203-0.38281 3.6875-1.1562 0.875-0.78125 1.3125-1.8789 1.3125-3.2969 0-1.4258-0.4375-2.5234-1.3125-3.2969-0.86719-0.76953-2.0938-1.1562-3.6875-1.1562z"/>
  </symbol>
  <symbol id="k" overflow="visible">
   <path d="m3.6719-23.922h7.6562v23.922h-7.6562zm0-9.3125h7.6562v6.2344h-7.6562z"/>
  </symbol>
  <symbol id="j" overflow="visible">
   <path d="m3.6719-33.234h7.6562v18.094l8.7969-8.7812h8.8906l-11.688 10.969 12.594 12.953h-9.2656l-9.3281-9.9688v9.9688h-7.6562z"/>
  </symbol>
 </defs>
 <g>
  <path d="m627.45 171.36-30.09-30.188c-1.6445-1.6445-3.8672-2.5742-6.1953-2.5742h-32.77l10.09-16.852c2.0547-3.4492 1.5156-7.8398-1.3203-10.684l-48.211-48.211c-2.8281-2.8438-7.2461-3.3789-10.684-1.3203l-16.859 10.098v-32.777c0-2.3281-0.91797-4.5586-2.5742-6.1953l-30.188-30.102c-2.0117-2.0039-4.8398-2.9219-7.6836-2.4219-2.793 0.48828-5.1875 2.3086-6.4062 4.8828l-35.953 75.949c-8.6172 18.207-8.4961 38.84-0.91797 56.699-7.9531-3.2109-16.172-5.8438-24.633-7.6914-88.586-17.387-141.57 41.258-141.68 41.379-39.242 39.164-54.293 96.703-39.277 150.2 0 0.027343 0.007812 0.050781 0.015625 0.078124 0 0.015626 0 0.027344 0.007813 0.042969 1.5234 5.4062 3.3945 10.703 5.5039 15.898-17.852-7.5352-38.43-7.6484-56.57 0.94531l-76.055 36.043c-2.5742 1.2266-4.3906 3.6211-4.875 6.4219-0.48828 2.8086 0.42969 5.6719 2.4414 7.6836l30.188 30.102c1.6445 1.6367 3.8594 2.5547 6.1758 2.5547h32.762l-10.16 16.93c-2.0664 3.4492-1.5234 7.8477 1.3125 10.691l48.211 48.211c2.8281 2.8438 7.2344 3.3789 10.691 1.3125l16.941-10.168v32.762c0 2.3203 0.91016 4.543 2.5547 6.1758l30.09 30.188c1.6523 1.6641 3.8867 2.5742 6.1953 2.5742 4.3398 0 6.6953-2.4219 7.9023-5.0039l36.051-76.039c8.5938-18.129 8.4805-38.691 0.95313-56.543 7.9023 3.1953 16.047 5.8008 24.43 7.6211 11.156 2.4688 22.383 3.668 33.504 3.668 40.164 0 75.371-13.754 108.27-45.055 39.277-39.27 54.312-96.922 39.262-150.45v-0.015625c-1.4805-5.2852-3.3164-10.457-5.3555-15.539 8.5039 3.5703 17.648 5.4336 26.871 5.4336 10.035 0 20.168-2.1797 29.629-6.6602l75.949-35.961c2.5742-1.2148 4.3906-3.6055 4.8828-6.4062 0.48828-2.8008-0.42188-5.6602-2.4219-7.6719zm-310.56 240.62c-23.02-5.7031-54.52-26.555-64.793-37.441-10.945-11.34-19.809-24.578-26.25-38.91 10.055 3.4492 22.637 6.3281 37.02 6.3281 8.707 0 18.043-1.0508 27.816-3.6406 31.684-8.4961 49.938-27.465 59.289-40.773 5.3711 12.152 10.859 32.691 3.9375 58.484-8.1289 30.215-26.758 48.047-37.012 55.949zm33.18-149.51c-5.3711-12.152-10.867-32.707-3.9453-58.527 7.8398-29.27 25.375-46.945 36.969-55.922 23.859 5.9219 45.656 18.156 63.211 35.707 11.77 11.715 21.211 25.508 27.949 40.539-16.203-5.5195-39.078-9.5273-64.812-2.5977-31.719 8.5039-49.996 27.5-59.367 40.801zm10.938-118.17c-11.875 11.875-24.988 29.723-31.789 55.109-8.4531 31.5-1.3047 56.699 5.4961 71.496-13.188-1.6289-33.59-7.2969-52.641-25.727-23.23-22.516-25.664-53.855-25.82-63.84 28.387-27.004 66.309-40.258 104.75-37.047zm-120.61 55.012c2.8086 16.703 10.219 39.75 29.516 58.449 23.562 22.785 49.008 29.207 65.031 30.801-7.7969 10.746-22.848 25.898-48.766 32.855-30.469 8.0664-55.965-1.7227-68.059-7.9805-10.062-39.742-1.6445-81.621 22.277-114.12zm4.5781 336.95-18.77-18.82v-44.598c0-3.1484-1.6875-6.0625-4.4375-7.6133-2.7383-1.5586-6.1094-1.5234-8.8203 0.11328l-24.324 14.594-38.551-38.551 14.594-24.324c1.6289-2.7031 1.6641-6.0742 0.11328-8.8125-1.5469-2.7383-4.4609-4.4375-7.6133-4.4375h-44.609l-18.82-18.77 56.062-26.582c5.5469 12.949 19.301 37.457 52.535 70.699 32.91 32.898 56.34 46.059 69.09 51.301l-26.461 55.809zm20.535-123.57c13.59 13.648 18.34 33.625 12.906 51.641-10.23-4.1992-32.078-15.941-63.691-47.547-31.91-31.91-44.301-54.625-48.859-65.25 17.973-5.3555 37.852-0.57812 51.449 12.957l48.203 48.203zm73.484 2.9844c11.473-11.516 24.922-29.469 31.824-55.098 8.5586-31.902 1.1211-57.32-5.7578-72.031 13.336 1.1914 34.246 6.4492 52.641 25.898 22.715 24.02 25.68 54.383 26.023 64.262-28.324 26.957-66.203 40.172-104.72 36.969zm120.36-54.625c-2.9492-16.293-10.379-39-28.953-58.633-22.637-23.957-48.457-30.172-64.953-31.422 7.9102-10.719 22.926-25.566 48.535-32.438 30.125-8.0938 55.754 1.6172 67.953 7.8398 10.098 39.918 1.5742 82.023-22.582 114.64zm23.469-165.66-48.211-48.195c-13.59-13.59-18.348-33.52-12.906-51.555 10.289 4.3242 32.199 16.25 63.805 47.914 31.816 31.816 44.188 54.285 48.754 64.82-18.043 5.3984-37.914 0.61328-51.434-12.984zm67.488 6.0625c-5.5547-12.844-19.277-37.125-52.422-70.27-32.996-33.059-56.488-46.359-69.211-51.676l26.426-55.816 18.828 18.777v44.582c0 3.1484 1.6875 6.0547 4.4375 7.6133 2.7383 1.5469 6.1094 1.5039 8.8125-0.10547l24.246-14.516 38.551 38.562-14.516 24.246c-1.6172 2.7031-1.6523 6.0625-0.10547 8.8125 1.5586 2.7383 4.4609 4.4375 7.6133 4.4375h44.582l18.777 18.828-56.016 26.531z"/>
  <use x="70" y="691.25" xlink:href="#o"/>
  <use x="102.109375" y="691.25" xlink:href="#i"/>
  <use x="123.683594" y="691.25" xlink:href="#d"/>
  <use x="153.355469" y="691.25" xlink:href="#a"/>
  <use x="182.878906" y="691.25" xlink:href="#c"/>
  <use x="203.792969" y="691.25" xlink:href="#d"/>
  <use x="233.464844" y="691.25" xlink:href="#h"/>
  <use x="280.011719" y="691.25" xlink:href="#g"/>
  <use x="311.328125" y="691.25" xlink:href="#b"/>
  <use x="355.078125" y="691.25" xlink:href="#f"/>
  <use x="386.589844" y="691.25" xlink:href="#e"/>
  <use x="417.734375" y="691.25" xlink:href="#n"/>
  <use x="449.054688" y="691.25" xlink:href="#a"/>
  <use x="478.574219" y="691.25" xlink:href="#m"/>
  <use x="509.722656" y="691.25" xlink:href="#e"/>
  <use x="540.867188" y="691.25" xlink:href="#c"/>
  <use x="577.011719" y="691.25" xlink:href="#l"/>
  <use x="609.078125" y="691.25" xlink:href="#k"/>
  <use x="624.074219" y="691.25" xlink:href="#b"/>
  <use x="652.59375" y="691.25" xlink:href="#a"/>
  <use x="682.117188" y="691.25" xlink:href="#j"/>
 </g>
</svg>
